<svg xmlns="http://www.w3.org/2000/svg" version="1.1" xmlns:xlink="http://www.w3.org/1999/xlink" width="80px" height="80px" x="0" y="0" viewBox="0 0 64 64" style="enable-background:new 0 0 80 80" xml:space="preserve" class="">
	<g>
		<path d="M46.35 32.06A14.002 14.002 0 1 0 45 60c17.766-.624 18.882-25.644 1.35-27.94zm7.72 17.44a1.025 1.025 0 0 1-.47.85l-8.07 5.05a1.011 1.011 0 0 1-1.06 0l-8.07-5.05a1.025 1.025 0 0 1-.47-.85v-7.98a1.039 1.039 0 0 1 .55-.9l8.07-4.07a1.017 1.017 0 0 1 .9 0l8.07 4.07a.557.557 0 0 1 .08.05 1.024 1.024 0 0 1 .47.85z" fill="#d10f0f" opacity="1" data-original="#000000" class=""></path>
		<path d="M46 52.74c-.017.04 6.07-3.8 6.07-3.79v-5.63L46 47.14zM37.93 48.95l6.07 3.8c.007 0-.005-5.606 0-5.61l-6.07-3.82zM45 38.57l-6.04 3.04 6.04 3.8 6.04-3.8z" fill="#d10f0f" opacity="1" data-original="#000000" class=""></path>
		<path d="M29 46a16 16 0 0 1 16.64-15.98C40.72 17.21 27.79 4.83 27.21 4.27a1.017 1.017 0 0 0-1.38 0C25 5.06 5.52 23.75 5.52 39a20.986 20.986 0 0 0 29.26 19.3A15.911 15.911 0 0 1 29 46z" fill="#d10f0f" opacity="1" data-original="#000000" class=""></path>
	</g>
</svg>