<svg xmlns="http://www.w3.org/2000/svg" version="1.1" xmlns:xlink="http://www.w3.org/1999/xlink" width="80px" height="80px" x="0" y="0" viewBox="0 0 512 512" style="enable-background:new 0 0 80 80" xml:space="preserve" class="">
	<g>
		<g fill-rule="evenodd" clip-rule="evenodd">
			<path fill="#78777c" d="M62.93 322.249c-8.25 0-15 6.75-15 15v20.864c6.924-3.777 14.525-5.863 22.5-5.863s15.576 2.086 22.5 5.867V337.25c0-8.25-6.75-15-15-15h-15z" opacity="1" data-original="#78777c"></path>
			<ellipse cx="70.431" cy="428.374" fill="#bbbbbe" rx="58.361" ry="76.126" opacity="1" data-original="#bbbbbe"></ellipse>
			<path fill="#e46a4a" d="M120.564 280.186c0 63.992 69.133 108.417 115.867 141.313 46.734-32.897 115.867-77.322 115.867-141.313 0-63.992-73.894-90.699-115.867-28.233-41.973-62.466-115.867-35.758-115.867 28.233z" opacity="1" data-original="#e46a4a"></path>
			<path fill="#c4e5f9" d="M334.931 105c0 37.289 30.211 67.5 67.5 67.5s67.5-30.211 67.5-67.5-30.211-67.5-67.5-67.5-67.5 30.211-67.5 67.5zm67.5 15c-8.284 0-15-6.716-15-15s6.716-15 15-15 15 6.715 15 15c-.001 8.284-6.716 15-15 15z" opacity="1" data-original="#c4e5f9"></path>
			<path fill="#fef090" d="M402.431 172.5c-37.289 0-67.5-30.211-67.5-67.5h-30c0 48.747 35.774 89.138 82.5 96.353a98.242 98.242 0 0 0 15 1.147z" opacity="1" data-original="#fef090"></path>
			<path fill="#fee31e" d="M334.931 105c0-37.289 30.211-67.5 67.5-67.5v-30h-.237c-53.739.128-97.262 43.731-97.262 97.5z" opacity="1" data-original="#fee31e"></path>
			<path fill="#e46a4a" d="M402.431 37.5c37.289 0 67.5 30.211 67.5 67.5h30c0-53.768-43.524-97.372-97.262-97.5h-.238z" opacity="1" data-original="#e46a4a"></path>
			<path fill="#db380e" d="M469.931 105c0 37.289-30.211 67.5-67.5 67.5v30c5.101 0 10.111-.392 15-1.147 46.726-7.215 82.5-47.607 82.5-96.353z" opacity="1" data-original="#db380e"></path>
			<circle cx="402.431" cy="105" r="15" fill="#bbbbbe" opacity="1" data-original="#bbbbbe"></circle>
			<path fill="#78777c" d="M417.431 201.353c-4.89.755-9.899 1.147-15 1.147s-10.11-.392-15-1.149v16.151c0 8.25 6.75 14.999 15 14.999s15-6.749 15-14.999zM12.07 428.374c0 37.492 26.407 85.714 69.611 74.707-26.848-6.84-47.111-37.684-47.111-74.707 0-30.126 16.293-67.412 47.111-74.809-43.663-10.48-69.611 37.427-69.611 74.809z" opacity="1" data-original="#78777c"></path>
			<path fill="#db380e" d="M120.564 280.186c0 63.992 69.133 108.417 115.867 141.313 3.629-2.555 7.393-5.179 11.25-7.876-45.805-32.038-104.617-74.415-104.617-133.437 0-33.853 20.684-57.27 46.377-62.567-34.94-7.03-68.877 19.201-68.877 62.567z" opacity="1" data-original="#db380e"></path>
			<path fill="#83c8f1" d="M334.931 105c0 41.957 37.711 73.443 78.75 66.562-31.93-5.354-56.25-33.107-56.25-66.562s24.32-61.208 56.25-66.562c-41.04-6.881-78.75 24.605-78.75 66.562z" opacity="1" data-original="#83c8f1"></path>
		</g>
		<path fill="#ffffff" d="M324.69 271.759h-15v-15h15zm-29.999-15.001h-15v-15h15z" opacity="1" data-original="#ffffff"></path><path d="M507.431 105c0-57.897-47.103-105-105-105s-105 47.103-105 105c0 50.175 35.379 92.236 82.5 102.565v9.938c0 9.777 6.271 18.113 15 21.209V361.5h15V238.712c8.729-3.096 15-11.432 15-21.209v-9.938c47.12-10.329 82.5-52.39 82.5-102.565zm-15.315-7.5h-15.061c-3.529-35.379-31.745-63.595-67.124-67.124V15.315c43.656 3.619 78.566 38.529 82.185 82.185zM402.431 165c-33.084 0-60-26.916-60-60s26.916-60 60-60 60 26.916 60 60-26.916 60-60 60zm-7.5-149.685v15.061c-35.379 3.529-63.595 31.745-67.124 67.124h-15.061c3.619-43.656 38.529-78.566 82.185-82.185zM312.746 112.5h15.061c3.529 35.379 31.745 63.595 67.124 67.124v15.061c-43.656-3.619-78.566-38.529-82.185-82.185zm97.185 105.002c0 4.135-3.364 7.5-7.5 7.5s-7.5-3.364-7.5-7.5v-7.773c2.478.176 4.978.271 7.5.271s5.022-.095 7.5-.271zm0-22.817v-15.061c35.379-3.529 63.595-31.745 67.124-67.124h15.061c-3.619 43.656-38.529 78.566-82.185 82.185z" fill="#000000" opacity="1" data-original="#000000"></path>
		<path d="M424.931 105c0-12.407-10.094-22.5-22.5-22.5s-22.5 10.093-22.5 22.5 10.094 22.5 22.5 22.5c3.469 0 6.757-.79 9.694-2.199l13.99 13.99 10.607-10.606-13.991-13.991a22.354 22.354 0 0 0 2.2-9.694zm-22.5 7.5c-4.136 0-7.5-3.364-7.5-7.5s3.364-7.5 7.5-7.5 7.5 3.364 7.5 7.5-3.365 7.5-7.5 7.5zM251.183 344.219l24.304-31.495h18.814v-15h-26.185l-18.178 23.554-33.845-35.217-18.858 26.002h-18.674v15h26.325l12.82-17.676zM394.931 376.5h15v15h-15z" fill="#000000" opacity="1" data-original="#000000"></path>
		<path d="M394.931 421.5c0 41.631-33.869 75.5-75.5 75.5-40.346 0-73.401-31.812-75.403-71.669l4.933-3.451c46.775-32.689 110.837-77.458 110.837-141.693 0-32.949-18.358-59.834-46.77-68.493-19.461-5.932-46.172-3.026-69.098 19.429V90.5c0-49.902-40.598-90.5-90.5-90.5s-90.5 40.598-90.5 90.5v224.249c-12.406 0-22.5 10.093-22.5 22.5v16.717c-21.269 13.882-35.861 42.013-35.861 74.409C4.569 474.486 34.114 512 70.431 512s65.861-37.514 65.861-83.625c0-32.396-14.593-60.527-35.861-74.409v-16.717c0-12.406-10.094-22.5-22.5-22.5V90.5c0-41.631 33.869-75.5 75.5-75.5s75.5 33.87 75.5 75.5v140.622c-22.927-22.455-49.64-25.36-69.098-19.429-28.411 8.659-46.77 35.544-46.77 68.493 0 28.505 12.374 55.55 37.83 82.68l10.939-10.264c-22.724-24.218-33.77-47.905-33.77-72.417 0-26.201 14.187-47.454 36.143-54.145 28.018-8.541 52.463 9.948 65.999 30.095l6.226 9.265 6.226-9.265c13.537-20.147 37.981-38.634 65.999-30.095 21.956 6.691 36.143 27.944 36.143 54.145 0 24.747-11.265 48.668-34.439 73.131-20.609 21.757-46.844 40.091-69.99 56.267l-3.938 2.753c-1.29-.903-2.594-1.814-3.911-2.734-19.476-13.612-41.551-29.04-60.407-46.744l-10.268 10.936c19.645 18.444 42.19 34.201 62.082 48.104a5463.67 5463.67 0 0 1 5.096 3.565c2.083 48.07 41.834 86.537 90.408 86.537 49.902 0 90.5-40.598 90.5-90.5v-15h-15zm-273.639 6.875c0 37.84-22.816 68.625-50.861 68.625S19.57 466.215 19.57 428.375s22.816-68.626 50.861-68.626 50.861 30.785 50.861 68.626zm-35.861-91.126v9.714c-4.822-1.432-9.839-2.214-15-2.214s-10.178.782-15 2.214v-9.714c0-4.135 3.364-7.5 7.5-7.5h15c4.135 0 7.5 3.364 7.5 7.5z" fill="#000000" opacity="1" data-original="#000000"></path>
	</g>
</svg>